<svg xmlns="http://www.w3.org/2000/svg" width="512" height="512" viewBox="0 0 512 512">
  <defs>
    <linearGradient id="bg" x1="0" y1="0" x2="1" y2="1">
      <stop offset="0" stop-color="#4f46e5"/>
      <stop offset="1" stop-color="#2563eb"/>
    </linearGradient>
    <linearGradient id="card" x1="0" y1="0" x2="0" y2="1">
      <stop offset="0" stop-color="#ffffff" stop-opacity="0.22"/>
      <stop offset="1" stop-color="#ffffff" stop-opacity="0.05"/>
    </linearGradient>
  </defs>
  <rect width="512" height="512" rx="112" fill="url(#bg)"/>
  <rect x="96" y="150" width="320" height="212" rx="34" fill="url(#card)" stroke="#ffffff" stroke-opacity="0.55" stroke-width="6"/>
  <line x1="96" y1="214" x2="416" y2="214" stroke="#ffffff" stroke-opacity="0.45" stroke-width="6"/>
  <circle cx="138" cy="182" r="11" fill="#ffffff" fill-opacity="0.85"/>
  <path d="M256 236 L256 322 M232 236 a24 24 0 1 1 48 0 M232 236 q0 30 24 40 M280 236 q0 30 -24 40 M228 268 a28 28 0 1 1 56 0" stroke="#ffffff" stroke-width="22" stroke-linecap="round" stroke-linejoin="round" fill="none"/>
  <path d="M236 324 L276 324" stroke="#ffffff" stroke-width="20" stroke-linecap="round"/>
  <path d="M150 300 q30 -28 60 0 t60 0 t60 0" stroke="#ffffff" stroke-opacity="0.5" stroke-width="8" fill="none" stroke-linecap="round"/>
</svg>
